<?xml version="1.0" encoding="utf-8"?>
<!-- Generator: Adobe Illustrator 27.5.0, SVG Export Plug-In . SVG Version: 6.00 Build 0)  -->
<svg version="1.1" xmlns="http://www.w3.org/2000/svg" xmlns:xlink="http://www.w3.org/1999/xlink" x="0px" y="0px"
	 viewBox="0 0 3710 3710" style="enable-background:new 0 0 3710 3710;" xml:space="preserve">
<g id="Background">
	<g>
		<g>
			<rect style="fill:#FFFFFF;" width="3710" height="3710"/>
		</g>
	</g>
</g>
<g id="Illustration">
	<g>
		<linearGradient id="SVGID_1_" gradientUnits="userSpaceOnUse" x1="3593.2729" y1="4041.353" x2="1124.8688" y2="975.7497">
			<stop  offset="0" style="stop-color:#DAE3FE"/>
			<stop  offset="1" style="stop-color:#E9EFFD"/>
		</linearGradient>
		<path style="fill:url(#SVGID_1_);" d="M2922.12,2826.891c-57.133,59.389-111.191,97.689-153.901,127.948
			c-502.052,355.694-1096.112,252.011-1222.367,226.69c-186.438-37.39-546.82-109.664-807.369-412.208
			c-394.189-457.724-332.808-1178.855-27.048-1654.884c55.928-87.074,351.358-570.354,951.816-647.856
			c363.391-46.904,786.989,47.696,1093.746,301.463C3400.909,1300.724,3355.07,2376.833,2922.12,2826.891z"/>
		<g>
			<path style="fill:#BDD0FB;" d="M2948.901,480.392c3.901-14.167-14.312-24.552-26.318-15.089
				c-121.927,96.094-418.127,387.063-377.11,921.571c51.462,670.62-111.238,906.871-305.417,1046.558
				c0,0,259.433-57.86,433.62-297.164C3101.345,1548.722,2879.547,732.281,2948.901,480.392z"/>
			<path style="fill:#FFFFFF;" d="M2849.038,684.454c-18.576,73.525-35.582,147.35-49.655,221.648
				c-14.49,74.215-26.552,148.805-36.091,223.637c-9.229,74.859-16.944,149.867-21.216,225.068
				c-4.636,75.18-5.788,150.46-6.66,226.046c-1.326,75.538-2.2,151.642-11.468,227.895c-9.174,76.101-28.28,152.408-61.838,223.211
				c-8.386,17.645-17.151,35.217-26.944,52.134c-9.459,17.093-19.736,33.802-30.331,50.332
				c-21.372,32.971-45.138,64.682-71.33,94.612c-52.556,59.744-114.871,112.011-182.761,155.541
				c-7.145,4.582-16.938,2.917-21.874-3.716c-4.846-6.513-3.205-15.398,3.622-20.055l0.048-0.033
				c16.189-11.021,32.223-22.201,47.665-34.006c7.824-5.789,15.355-11.888,23.007-17.853c7.398-6.226,15.061-12.188,22.244-18.621
				c29.194-25.271,56.442-52.414,81.393-81.293c50.153-57.468,91.314-122.192,123.501-189.779
				c15.687-33.973,28.65-68.959,38.669-104.751c9.99-35.802,17.033-72.372,21.833-109.344
				c9.61-73.984,11.145-149.303,13.056-224.828c2.017-75.539,4.603-151.435,10.549-227.115
				c2.863-37.842,6.457-75.632,10.779-113.344c2.044-18.866,4.481-37.693,6.881-56.52c2.595-18.806,5.301-37.596,8.172-56.362
				c11.633-75.047,25.727-149.728,42.342-223.891c16.998-74.089,36.108-147.734,58.242-220.571c0.633-2.083,2.963-3.294,5.205-2.706
				C2848.254,680.361,2849.546,682.429,2849.038,684.454z"/>
		</g>
		<g>
			<g>
				<path style="fill:#91B3FA;" d="M2606.549,2449.452c6.336,26.187,37.357,37.392,59.174,21.583
					c120.378-87.23,438.425-364.639,466.818-877.051c23.976-432.708,78.097-665.062,109.976-768.84
					c6.74-21.945-18.451-39.74-36.907-26.088C3001.986,949.679,2376.952,1500.566,2606.549,2449.452z"/>
				<path style="fill:#FFFFFF;" d="M2642.784,2453.672c0.513,0.428,1.072,0.812,1.68,1.145c5.089,2.801,11.486,0.946,14.287-4.143
					c3.175-5.77,318.187-583.846,378.703-1183.993c0.58-5.775-3.631-10.934-9.412-11.523c-5.781-0.581-10.938,3.631-11.523,9.412
					c-60.074,595.778-373.045,1170.229-376.198,1175.96C2637.853,2445.013,2638.998,2450.51,2642.784,2453.672z"/>
			</g>
		</g>
		<g>
			
				<linearGradient id="SVGID_00000090268299218255549830000002000410779232438428_" gradientUnits="userSpaceOnUse" x1="1825.5314" y1="859.6192" x2="2508.8403" y2="1579.9636" gradientTransform="matrix(-0.9996 -0.0269 -0.0269 0.9996 2954.9309 2.4134)">
				<stop  offset="0" style="stop-color:#FF928E"/>
				<stop  offset="1" style="stop-color:#FE7062"/>
			</linearGradient>
			<path style="fill:url(#SVGID_00000090268299218255549830000002000410779232438428_);" d="M625.881,1061.357l587.372,3.241
				c15.211,0.084,27.699-12.006,28.108-27.211l1.902-70.601c0.421-15.635-12.063-28.576-27.703-28.716l-587.317-5.28
				c-15.248-0.137-27.795,11.967-28.206,27.21l-1.956,72.64C597.659,1048.313,610.202,1061.27,625.881,1061.357z"/>
			<polygon style="fill:#FFFFFF;" points="1217.994,1041.479 1220.155,961.257 624.196,956.278 622,1037.812 			"/>
			
				<linearGradient id="SVGID_00000062174469607775867530000014952399767395608246_" gradientUnits="userSpaceOnUse" x1="-410.2139" y1="359.262" x2="-686.7288" y2="1370.9047" gradientTransform="matrix(0.9995 -0.0307 0.0307 0.9995 1132.3894 -0.291)">
				<stop  offset="0" style="stop-color:#FF928E"/>
				<stop  offset="1" style="stop-color:#FE7062"/>
			</linearGradient>
			<path style="fill:url(#SVGID_00000062174469607775867530000014952399767395608246_);" d="M501.943,1060.608l172.102,0.95
				c23.898,0.132,39.879-24.558,29.972-46.306l-54.621-119.908c-5.266-11.56-16.744-19.03-29.447-19.164l-114.244-1.202
				c-17.869-0.188-32.588,13.989-33.069,31.853l-3.236,120.16C468.905,1045.338,483.589,1060.506,501.943,1060.608z"/>
			<polygon style="fill:#FFFFFF;" points="688.029,1038.153 624.939,899.758 497.084,898.495 493.355,1036.955 			"/>
			<polygon style="fill:#FFFFFF;" points="1159.274,1028.947 1201.247,1029.219 1202.754,973.269 1160.783,972.932 			"/>
			<polygon style="fill:#FFFFFF;" points="1102.24,1028.578 1144.345,1028.85 1145.854,972.813 1103.751,972.475 			"/>
			<polygon style="fill:#FFFFFF;" points="1045.028,1028.206 1087.264,1028.48 1088.776,972.355 1046.541,972.016 			"/>
			
				<linearGradient id="SVGID_00000116922109452908647120000010555884557305376182_" gradientUnits="userSpaceOnUse" x1="-132.135" y1="864.9001" x2="-195.0815" y2="1251.5721" gradientTransform="matrix(0.9995 -0.0307 0.0307 0.9995 1132.3894 -0.291)">
				<stop  offset="0" style="stop-color:#FF928E"/>
				<stop  offset="1" style="stop-color:#FE7062"/>
			</linearGradient>
			<polygon style="fill:url(#SVGID_00000116922109452908647120000010555884557305376182_);" points="987.636,1027.834 
				1030.005,1028.109 1031.519,971.896 989.152,971.556 			"/>
			
				<linearGradient id="SVGID_00000179620582626120323640000000227624571452312500_" gradientUnits="userSpaceOnUse" x1="2011.4999" y1="792.6435" x2="1932.8147" y2="1354.6814" gradientTransform="matrix(-0.9996 -0.0269 -0.0269 0.9996 2954.9309 2.4134)">
				<stop  offset="0" style="stop-color:#FF928E"/>
				<stop  offset="1" style="stop-color:#FE7062"/>
			</linearGradient>
			<polygon style="fill:url(#SVGID_00000179620582626120323640000000227624571452312500_);" points="930.064,1027.461 
				972.566,1027.736 974.082,971.435 931.582,971.094 			"/>
			
				<linearGradient id="SVGID_00000078029284086387643240000009673964757160241587_" gradientUnits="userSpaceOnUse" x1="2068.2246" y1="800.584" x2="1989.5394" y2="1362.6213" gradientTransform="matrix(-0.9996 -0.0269 -0.0269 0.9996 2954.9309 2.4134)">
				<stop  offset="0" style="stop-color:#FF928E"/>
				<stop  offset="1" style="stop-color:#FE7062"/>
			</linearGradient>
			<polygon style="fill:url(#SVGID_00000078029284086387643240000009673964757160241587_);" points="872.311,1027.086 
				914.946,1027.362 916.465,970.973 873.831,970.631 			"/>
			
				<linearGradient id="SVGID_00000129184015984392266120000000156471546104314789_" gradientUnits="userSpaceOnUse" x1="2125.1282" y1="808.5496" x2="2046.4429" y2="1370.5872" gradientTransform="matrix(-0.9996 -0.0269 -0.0269 0.9996 2954.9309 2.4134)">
				<stop  offset="0" style="stop-color:#FF928E"/>
				<stop  offset="1" style="stop-color:#FE7062"/>
			</linearGradient>
			<polygon style="fill:url(#SVGID_00000129184015984392266120000000156471546104314789_);" points="814.376,1026.71 
				857.145,1026.988 858.666,970.509 815.899,970.166 			"/>
			
				<linearGradient id="SVGID_00000090978071814634759170000008047720447730661015_" gradientUnits="userSpaceOnUse" x1="2182.2107" y1="816.54" x2="2103.5256" y2="1378.577" gradientTransform="matrix(-0.9996 -0.0269 -0.0269 0.9996 2954.9309 2.4134)">
				<stop  offset="0" style="stop-color:#FF928E"/>
				<stop  offset="1" style="stop-color:#FE7062"/>
			</linearGradient>
			<polygon style="fill:url(#SVGID_00000090978071814634759170000008047720447730661015_);" points="756.258,1026.333 
				799.162,1026.611 800.686,970.044 757.783,969.7 			"/>
		</g>
		<g>
			<g>
				
					<linearGradient id="SVGID_00000085251538856617251230000012914107009149569213_" gradientUnits="userSpaceOnUse" x1="3620.9202" y1="1549.3516" x2="2907.7646" y2="1448.1948">
					<stop  offset="0" style="stop-color:#4F52FF"/>
					<stop  offset="1" style="stop-color:#4042E2"/>
				</linearGradient>
				<polygon style="fill:url(#SVGID_00000085251538856617251230000012914107009149569213_);" points="2633.43,878.369 
					2725.935,871.837 2841.325,1209.645 2690.051,1967.88 2546.513,1946.707 				"/>
				
					<linearGradient id="SVGID_00000059271318549891433660000009741622014553189053_" gradientUnits="userSpaceOnUse" x1="-1552.6377" y1="1411.7535" x2="1473.1655" y2="1361.3235" gradientTransform="matrix(-1 0 0 1 1583.2321 0)">
					<stop  offset="0" style="stop-color:#4F52FF"/>
					<stop  offset="1" style="stop-color:#4042E2"/>
				</linearGradient>
				<polygon style="fill:url(#SVGID_00000059271318549891433660000009741622014553189053_);" points="2081.514,1914.498 
					2264.267,1221.694 2373.365,846.605 2633.43,878.369 2753.09,1227.183 2588.792,1946.614 2081.07,1946.614 				"/>
				
					<linearGradient id="SVGID_00000142165585054932708050000004746829392780724917_" gradientUnits="userSpaceOnUse" x1="3279.8413" y1="287.7679" x2="3047.1814" y2="469.8492">
					<stop  offset="0" style="stop-color:#4F52FF"/>
					<stop  offset="1" style="stop-color:#4042E2"/>
				</linearGradient>
				<polygon style="fill:url(#SVGID_00000142165585054932708050000004746829392780724917_);" points="2725.935,871.837 
					2493.096,838.131 2373.365,846.605 2633.43,878.369 				"/>
				
					<linearGradient id="SVGID_00000093884555217594151750000009451939710392526249_" gradientUnits="userSpaceOnUse" x1="3315.6201" y1="446.2755" x2="3057.6707" y2="689.0516">
					<stop  offset="0" style="stop-color:#4F52FF"/>
					<stop  offset="1" style="stop-color:#4042E2"/>
				</linearGradient>
				<polygon style="fill:url(#SVGID_00000093884555217594151750000009451939710392526249_);" points="2673.603,1209.99 
					2546.261,1169.993 2546.261,1010.916 2609.931,1016.569 				"/>
				
					<linearGradient id="SVGID_00000023969366560728080670000014859723281292007584_" gradientUnits="userSpaceOnUse" x1="3193.5835" y1="316.6134" x2="2935.6338" y2="559.3896">
					<stop  offset="0" style="stop-color:#4F52FF"/>
					<stop  offset="1" style="stop-color:#4042E2"/>
				</linearGradient>
				<polygon style="fill:url(#SVGID_00000023969366560728080670000014859723281292007584_);" points="2441.167,990.92 
					2382.954,976.206 2330.058,1151.802 2416.008,1151.802 				"/>
			</g>
			<g>
				<g>
					
						<linearGradient id="SVGID_00000132053494847597062360000003642308898277698486_" gradientUnits="userSpaceOnUse" x1="971.1063" y1="2742.3572" x2="1518.7009" y2="1974.8617" gradientTransform="matrix(-0.9985 -0.0552 -0.0552 0.9985 3007.4849 58.8591)">
						<stop  offset="0" style="stop-color:#2B3582"/>
						<stop  offset="0.2305" style="stop-color:#252A70"/>
						<stop  offset="0.7285" style="stop-color:#19164F"/>
						<stop  offset="1" style="stop-color:#150E42"/>
					</linearGradient>
					<path style="fill:url(#SVGID_00000132053494847597062360000003642308898277698486_);" d="M2039.21,2126.014
						c0,0-433.239,50.664-626.715,210.545c-193.476,159.88,129.596,721.822,129.596,721.822s57.863,2.839,131.278-53.37
						c0,0-186.787-419.525,0.187-528.529c210.207-122.547,445.603-139.756,445.603-139.756l-76.524-197.371L2039.21,2126.014z"/>
					
						<linearGradient id="SVGID_00000098916478511692240170000016640149044572319654_" gradientUnits="userSpaceOnUse" x1="772.9178" y1="3072.0078" x2="801.6871" y2="2093.8589" gradientTransform="matrix(-0.9985 -0.0552 -0.0552 0.9985 3007.4849 58.8591)">
						<stop  offset="0" style="stop-color:#09005D"/>
						<stop  offset="1" style="stop-color:#1A0F91"/>
					</linearGradient>
					<path style="fill:url(#SVGID_00000098916478511692240170000016640149044572319654_);" d="M2459.405,2020.025
						c0,0,81.223,260.097-18.361,332.327c-99.584,72.229-331.756,146.918-391.072,298.466
						c-59.316,151.548-117.118,374.266-238.326,474.134c0,0-120.144,33.964-148.686,0c0,0,85.013-417.992,134.685-530.503
						c43.016-97.435,106.231-238.011,216.603-312.437c31.595-21.305,28.324-57.998,16.217-94.13l-22.048-65.798L2459.405,2020.025z"
						/>
					
						<linearGradient id="SVGID_00000165937425846355759100000006109640568967847828_" gradientUnits="userSpaceOnUse" x1="2078.7764" y1="884.7128" x2="2031.5675" y2="979.1303">
						<stop  offset="0" style="stop-color:#FF928E"/>
						<stop  offset="1" style="stop-color:#FE7062"/>
					</linearGradient>
					<path style="fill:url(#SVGID_00000165937425846355759100000006109640568967847828_);" d="M1476.487,1765.38
						c159.263,18.463,123.575-239.577,121.256-249.89l233.065,184.704c0,0-20.382,135.813-225.98,196.285
						c-52.017,15.298-98.688,13.523-139.422,2.384C1485.816,1848.572,1484.783,1802.374,1476.487,1765.38z"/>
					
						<linearGradient id="SVGID_00000029023723135714861820000016876824704474744760_" gradientUnits="userSpaceOnUse" x1="1425.8059" y1="1807.6387" x2="1847.6724" y2="1807.6387" gradientTransform="matrix(-0.9985 -0.0552 -0.0552 0.9985 3007.4849 58.8591)">
						<stop  offset="0" style="stop-color:#FEBBBA"/>
						<stop  offset="1" style="stop-color:#FF928E"/>
					</linearGradient>
					<path style="fill:url(#SVGID_00000029023723135714861820000016876824704474744760_);" d="M1171.753,1671.472
						c61.834-38.129,127.006,7.017,127.006,7.017c76.741,56.469,134.42,81.87,177.728,86.891
						c8.297,36.994,9.329,83.192-11.082,133.484c-88.135-24.1-148.38-92.178-174.279-126.831
						c-9.323-12.475-26.887-15.524-39.625-6.563c-12.941,9.104-25.722,21.845-24.318,36.077
						c2.768,28.064-30.01,35.126-31.888,24.901c-1.877-10.227,14.908-69.308,14.908-69.308s-68.167,61.373-94.755,84.932
						c-26.588,23.563-56.91-3.144-56.91-3.144S1109.918,1709.604,1171.753,1671.472z"/>
					
						<linearGradient id="SVGID_00000153692387997439553450000007416539407127013034_" gradientUnits="userSpaceOnUse" x1="2366.9055" y1="1028.7765" x2="2319.6965" y2="1123.1942">
						<stop  offset="0" style="stop-color:#FF928E"/>
						<stop  offset="1" style="stop-color:#FE7062"/>
					</linearGradient>
					<path style="fill:url(#SVGID_00000153692387997439553450000007416539407127013034_);" d="M2257.505,1156.485
						c0,0-227.332-105.925-679.708,227.356c0,0-40.271,72.805-4.525,141.562c35.745,68.758,393.455,413.923,435.144,596.681
						c0,0,219.77,85.08,460.731-74.566C2469.147,2047.519,2476.386,1545.693,2257.505,1156.485z"/>
					
						<linearGradient id="SVGID_00000181057025175254701850000011050050580333052346_" gradientUnits="userSpaceOnUse" x1="1023.3038" y1="1185.0271" x2="1303.2112" y2="1185.0271" gradientTransform="matrix(-0.9985 -0.0552 -0.0552 0.9985 3007.4849 58.8591)">
						<stop  offset="0" style="stop-color:#FEBBBA"/>
						<stop  offset="1" style="stop-color:#FF928E"/>
					</linearGradient>
					<path style="fill:url(#SVGID_00000181057025175254701850000011050050580333052346_);" d="M1802.518,1048.027l106.777,145.059
						c10.601,14.402,12.046,33.702,3.3,49.301c-17.674,31.526-57.969,76.615-141.198,65.475
						c-24.757-3.314-45.949-19.535-55.569-42.587l-70.881-169.84L1802.518,1048.027z"/>
					
						<linearGradient id="SVGID_00000129918512342945037230000002114605322757573513_" gradientUnits="userSpaceOnUse" x1="2637.4656" y1="1164.0568" x2="2590.2566" y2="1258.4745">
						<stop  offset="0" style="stop-color:#FF928E"/>
						<stop  offset="1" style="stop-color:#FE7062"/>
					</linearGradient>
					<path style="fill:url(#SVGID_00000129918512342945037230000002114605322757573513_);" d="M2404.662,1760.612
						c33.06-108.42-226.762-368.557-226.762-368.557l79.605-235.569c0,0,568.563,425.563,400.679,733.251
						c-24.067,44.109-54.46,74.259-88.839,93.643C2528.884,1852.813,2456.379,1789.953,2404.662,1760.612z"/>
					
						<linearGradient id="SVGID_00000067215423094252422250000009034916462549533066_" gradientUnits="userSpaceOnUse" x1="414.8549" y1="1544.5565" x2="1242.7423" y2="1497.1255" gradientTransform="matrix(-0.9985 -0.0552 -0.0552 0.9985 3007.4849 58.8591)">
						<stop  offset="0" style="stop-color:#E1473D"/>
						<stop  offset="1" style="stop-color:#E9605A"/>
					</linearGradient>
					<path style="fill:url(#SVGID_00000067215423094252422250000009034916462549533066_);" d="M2405.739,1744.62
						c2.901,0.16,5.65-1.661,6.537-4.573c33.806-110.85-217.657-364.272-228.375-375.01c-2.518-2.517-6.608-2.533-9.151-0.008
						c-2.527,2.526-2.525,6.625-0.008,9.151c2.575,2.571,256.719,258.612,225.158,362.096c-1.041,3.418,0.885,7.032,4.302,8.074
						C2404.708,1744.505,2405.226,1744.592,2405.739,1744.62z"/>
					
						<linearGradient id="SVGID_00000023985072144061275580000006069849207392611978_" gradientUnits="userSpaceOnUse" x1="2582.3845" y1="1830.399" x2="1591.0455" y2="1921.4397">
						<stop  offset="0" style="stop-color:#FEBBBA"/>
						<stop  offset="1" style="stop-color:#FF928E"/>
					</linearGradient>
					<path style="fill:url(#SVGID_00000023985072144061275580000006069849207392611978_);" d="M1991.146,1728.277
						c0,0,317.15,143.739,401.489,53.461c5.719-6.124,9.621-13.238,12.027-21.126c51.718,29.341,124.222,92.201,164.684,222.767
						c-176.477,99.505-458.473-86.109-534.494-140.437c-12.506-8.937-27.893-12.679-43.094-10.392
						c-30.734,4.622-83.738,10.987-111.807,5.061c-41.065-8.667-108.624,134.139-173.262,85.368
						C1706.688,1922.979,1778.201,1672.213,1991.146,1728.277z"/>
					<g>
						
							<linearGradient id="SVGID_00000165919655071389398130000007107933477030048144_" gradientUnits="userSpaceOnUse" x1="1887.7034" y1="-495.0767" x2="1537.764" y2="-32.1356" gradientTransform="matrix(-0.953 -0.3029 -0.3029 0.953 3278.6057 1896.8171)">
							<stop  offset="0" style="stop-color:#FEBBBA"/>
							<stop  offset="1" style="stop-color:#FF928E"/>
						</linearGradient>
						<path style="fill:url(#SVGID_00000165919655071389398130000007107933477030048144_);" d="M1564.762,830.488
							c-1.397,4.396,9.824,309.215,9.824,309.215l173.911-10.107l32.286-290.485
							C1780.783,839.112,1588.161,756.883,1564.762,830.488z"/>
						
							<linearGradient id="SVGID_00000143613269927344707650000016024138832199977116_" gradientUnits="userSpaceOnUse" x1="1620.4429" y1="-383.4034" x2="2038.4454" y2="-383.4034" gradientTransform="matrix(-0.953 -0.3029 -0.3029 0.953 3278.6057 1896.8171)">
							<stop  offset="0" style="stop-color:#09005D"/>
							<stop  offset="1" style="stop-color:#1A0F91"/>
						</linearGradient>
						<path style="fill:url(#SVGID_00000143613269927344707650000016024138832199977116_);" d="M1732.434,897.01l-5.022,154.248
							c-0.065,1.979-0.384,3.89-0.981,5.777c-3.654,11.55-19.141,50.363-57.885,32.097c-35.156-16.574-67.487-31.177-92.037-27.909
							c-11.022,1.468-19.116,11.042-18.705,22.155c1.027,27.695,4.495,90.059,15.774,143.782
							c2.289,10.902,12.61,18.141,23.671,16.816c33.327-3.99,103.382-14.373,157.784-35.928c7.371-2.921,12.573-9.546,13.541-17.416
							c4.717-38.367,19.487-154.924,28.627-186.767c8.578-29.888,49.007-41.935,66.342-45.783c5.684-1.262,10.556-4.766,13.57-9.747
							c10.654-17.607,28.271-59.516-23.747-86.524c-10.886-5.653-14.892-19.067-8.911-29.776
							c11.906-21.322,21.085-55.352-18.288-81.477c-40.019-26.554-76.135-8.866-96.68,6.971c-8.307,6.404-19.811,5.68-27.641-1.299
							c-4.457-3.972-10.7-6.07-19.253-2.528c-11.524,4.773-24.618-1.958-28.172-13.914c-6.827-22.971-24.148-49.238-67.68-49.016
							c-77.245,0.395-99.569,82.214-87.852,134.276c11.718,52.063,95.441,46.874,139.977,29.001
							c33.861-13.589,70.506,12.629,86.127,25.978C1729.943,884.253,1732.646,890.505,1732.434,897.01z"/>
						
							<linearGradient id="SVGID_00000000910480353081161260000017886682655404754605_" gradientUnits="userSpaceOnUse" x1="1375.1843" y1="-128.4589" x2="1655.8593" y2="-416.424" gradientTransform="matrix(-0.953 -0.3029 -0.3029 0.953 3278.6057 1896.8171)">
							<stop  offset="0" style="stop-color:#FEBBBA"/>
							<stop  offset="1" style="stop-color:#FF928E"/>
						</linearGradient>
						<path style="fill:url(#SVGID_00000000910480353081161260000017886682655404754605_);" d="M1794.814,1060.007
							c0,0-16.524-91.592,18.716-107.503c35.239-15.909,80.399,2.885,59.656,63.806
							C1847.383,1092.09,1794.814,1060.007,1794.814,1060.007z"/>
					</g>
				</g>
				<g>
					<g>
						<g>
							
								<linearGradient id="SVGID_00000181080567552497790000000000743432225831782528_" gradientUnits="userSpaceOnUse" x1="1146.2672" y1="1187.1285" x2="1306.559" y2="1078.4564" gradientTransform="matrix(-0.9926 -0.1214 -0.1214 0.9926 3114.354 138.106)">
								<stop  offset="0" style="stop-color:#4F52FF"/>
								<stop  offset="1" style="stop-color:#4042E2"/>
							</linearGradient>
							<path style="fill:url(#SVGID_00000181080567552497790000000000743432225831782528_);" d="M1657.804,1152.113
								c106.868,2.901,163.442-110.189,164.001-111.334l-7.322-3.582c-0.537,1.094-54.875,109.526-156.459,106.769
								L1657.804,1152.113z"/>
						</g>
						
							<linearGradient id="SVGID_00000122685106818090604000000008351730431584161453_" gradientUnits="userSpaceOnUse" x1="1621.0121" y1="1146.7454" x2="1672.712" y2="1146.7454">
							<stop  offset="0" style="stop-color:#4F52FF"/>
							<stop  offset="1" style="stop-color:#4042E2"/>
						</linearGradient>
						<path style="fill:url(#SVGID_00000122685106818090604000000008351730431584161453_);" d="M1669.823,1156.485h-45.923
							c-1.589,0-2.888-1.3-2.888-2.888v-13.703c0-1.589,1.3-2.888,2.888-2.888h45.923c1.589,0,2.889,1.3,2.889,2.888v13.703
							C1672.712,1155.186,1671.412,1156.485,1669.823,1156.485z"/>
					</g>
					<g>
						
							<linearGradient id="SVGID_00000059994027694855848950000017790190424700052884_" gradientUnits="userSpaceOnUse" x1="1648.886" y1="797.6455" x2="514.4166" y2="985.0794" gradientTransform="matrix(-0.9926 -0.1214 -0.1214 0.9926 3114.354 138.106)">
							<stop  offset="0" style="stop-color:#4F52FF"/>
							<stop  offset="1" style="stop-color:#4042E2"/>
						</linearGradient>
						<path style="fill:url(#SVGID_00000059994027694855848950000017790190424700052884_);" d="M1816.983,933.618
							c0,0-46.689-168.23-153.543-180.588c0,0,29.093-14.906,61.295-0.926s116.421,93.755,118.976,184.782
							C1822.679,944.739,1816.983,933.618,1816.983,933.618z"/>
						
							<linearGradient id="SVGID_00000005225443124146812120000013156672483648762251_" gradientUnits="userSpaceOnUse" x1="2094.5198" y1="785.0345" x2="2005.1602" y2="857.5336">
							<stop  offset="0" style="stop-color:#4F52FF"/>
							<stop  offset="1" style="stop-color:#4042E2"/>
						</linearGradient>
						<path style="fill:url(#SVGID_00000005225443124146812120000013156672483648762251_);" d="M1827.68,908.774
							c59.11,9.053,55.489,83.425,55.489,83.425c6.813,53.517-7.58,80.904-27.059,94.564c-13.307,9.332-30.548,10.969-45.393,4.356
							c-14.846-6.614-25.138-20.527-27.116-36.659c-1.787-14.568-3.695-28.405-5.02-33.288
							C1775.376,1009.34,1768.57,899.721,1827.68,908.774z"/>
					</g>
					
						<linearGradient id="SVGID_00000059302358508860617880000001429051364470426801_" gradientUnits="userSpaceOnUse" x1="1967.3839" y1="919.3135" x2="2201.7422" y2="779.3727">
						<stop  offset="0" style="stop-color:#4F52FF"/>
						<stop  offset="1" style="stop-color:#4042E2"/>
					</linearGradient>
					<path style="fill:url(#SVGID_00000059302358508860617880000001429051364470426801_);" d="M1823.207,927.752
						c12.05-2.7,24.345,3.179,29.78,14.267c38.899,79.354-1.509,134.147-22.543,136.265c-22.17,2.232-26.883-104.715-23.488-132.355
						C1808.38,934.346,1815.46,929.488,1823.207,927.752z"/>
				</g>
			</g>
			<path style="fill:#91B3FA;" d="M458.046,1961.46c0,18.651,16.065,34.28,35.882,34.28h2498.244
				c19.817,0,35.881-15.63,35.881-34.28l0,0c0-18.651-16.064-34.28-35.881-34.28H493.928
				C474.111,1927.179,458.046,1942.809,458.046,1961.46L458.046,1961.46z"/>
			<g>
				<path style="fill:#7D97F4;" d="M493.928,1995.74c68.177,370.228,86.445,736.629,154.623,1105.257
					c4.031,21.499,23.382,39.708,42.33,39.708h2072.904c18.948,0,39.822-18.208,43.854-39.708
					c68.177-368.628,136.399-735.029,204.576-1105.257H493.928z"/>
				<path style="fill:#91B3FA;" d="M2168.499,1995.74c27.235,377.084-13.022,767.881,14.213,1144.965h581.073
					c18.948,0,39.822-18.208,43.854-39.708c68.177-368.628,136.399-735.029,204.576-1105.257H2168.499z"/>
			</g>
			<g>
				<path style="fill:#7D97F4;" d="M2251.336,1961.46c0,18.651,5.04,34.28,11.257,34.28h783.753c6.217,0,11.257-15.63,11.257-34.28
					l0,0c0-18.651-5.04-34.28-11.257-34.28h-783.753C2256.376,1927.179,2251.336,1942.809,2251.336,1961.46L2251.336,1961.46z"/>
			</g>
			
				<linearGradient id="SVGID_00000147186959905913495470000016360898303039838110_" gradientUnits="userSpaceOnUse" x1="-52.7701" y1="2105.9395" x2="476.7117" y2="1844.728" gradientTransform="matrix(-1 0 0 1 1583.2321 0)">
				<stop  offset="0" style="stop-color:#09005D"/>
				<stop  offset="1" style="stop-color:#1A0F91"/>
			</linearGradient>
			<path style="fill:url(#SVGID_00000147186959905913495470000016360898303039838110_);" d="M903.19,1892.899h709.906
				c15.433,0,22.461,18.801,22.461,34.235v6.901H874.533v-6.901C874.533,1911.7,887.756,1892.899,903.19,1892.899z"/>
			<g>
				<g>
					
						<linearGradient id="SVGID_00000110469365637672854050000017701856940622649251_" gradientUnits="userSpaceOnUse" x1="939.1638" y1="1099.9739" x2="1278.0394" y2="1853.5912">
						<stop  offset="0" style="stop-color:#09005D"/>
						<stop  offset="1" style="stop-color:#1A0F91"/>
					</linearGradient>
					<path style="fill:url(#SVGID_00000110469365637672854050000017701856940622649251_);" d="M700.489,1176.707l91.029,623.61
						c2.973,20.368,22.106,36.886,42.796,36.885l681.516-0.019c21.77-0.001,36.252-16.922,32.349-37.855l-119.397-640.376
						c-3.632-19.481-23.463-34.845-44.306-34.31l-653.125,16.754C711.503,1141.904,697.716,1157.716,700.489,1176.707z"/>
					
						<linearGradient id="SVGID_00000081645936529645140030000016967134211402403508_" gradientUnits="userSpaceOnUse" x1="1352.572" y1="1529.8809" x2="2060.7056" y2="1172.4421">
						<stop  offset="0" style="stop-color:#09005D"/>
						<stop  offset="1" style="stop-color:#1A0F91"/>
					</linearGradient>
					<path style="fill:url(#SVGID_00000081645936529645140030000016967134211402403508_);" d="M1368.062,1136.368l125.806,686.286
						c1.567,8.549,11.638,15.535,20.483,15.535c21.769,0,37.877-17.137,33.952-38.186l-119.487-640.859
						c-3.652-19.586-23.499-35.037-44.342-34.502l-11.463,0.294C1369.362,1127.571,1367.219,1131.771,1368.062,1136.368z"/>
					<g>
						<g>
							<path style="fill:#7D97F4;" d="M811.495,1584.755c2.532-0.092,4.209-2.3,3.745-4.932l-65.113-369.479
								c-2.955-16.767,10.307-27.54,24.849-28.281l69.224-3.531c2.489-0.127,4.134-2.279,3.675-4.806
								c-0.46-2.526-2.85-4.47-5.338-4.343l-69.184,3.552c-21.598,1.109-35.724,17.72-32.185,37.856l64.907,369.364
								C806.536,1582.787,808.963,1584.846,811.495,1584.755z"/>
						</g>
						<g>
							<path style="fill:#7D97F4;" d="M1317.165,1782.41l95.895-0.193c19.656-0.04,31.324-17.581,27.124-40.755l-25.824-142.49
								c-0.49-2.707-3.036-4.882-5.684-4.859c-2.648,0.023-4.398,2.236-3.91,4.941l25.74,142.442
								c3.159,17.48-5.115,30.706-19.237,30.739l-95.838,0.227c-2.653,0.006-4.415,2.237-3.938,4.983
								C1311.971,1780.192,1314.51,1782.415,1317.165,1782.41z"/>
						</g>
					</g>
				</g>
				<g>
					
						<linearGradient id="SVGID_00000045612420596667852240000013952279822382837423_" gradientUnits="userSpaceOnUse" x1="658.5743" y1="1916.9711" x2="28.9925" y2="1924.0555" gradientTransform="matrix(-1 0 0 1 1583.2321 0)">
						<stop  offset="0" style="stop-color:#09005D"/>
						<stop  offset="1" style="stop-color:#1A0F91"/>
					</linearGradient>
					<path style="fill:url(#SVGID_00000045612420596667852240000013952279822382837423_);" d="M888.245,1936.29v8.229l169.602-3.628
						h239.775c5.778,0,10.464-2.52,10.464-8.3l0,0c0-22.498-15.839-39.693-38.385-39.693H931.229c-2.901,0-8.673,1.1-11.242,1.671
						C902.198,1898.66,888.245,1916.694,888.245,1936.29z"/>
					
						<linearGradient id="SVGID_00000146493886183351606210000015384211997550227623_" gradientUnits="userSpaceOnUse" x1="501.8824" y1="1962.0621" x2="780.3506" y2="1590.7712" gradientTransform="matrix(-1 0 0 1 1583.2321 0)">
						<stop  offset="0" style="stop-color:#09005D"/>
						<stop  offset="1" style="stop-color:#1A0F91"/>
					</linearGradient>
					<path style="fill:url(#SVGID_00000146493886183351606210000015384211997550227623_);" d="M847.896,1935.672
						c0.047-22.498,18.36-40.573,40.905-40.478l34.2,0.143l135.037,0.618l169.236,0.998c22.498,0.095,40.668,16.333,40.62,38.831
						c-0.026,4.447-3.639,5.107-8.086,5.107H855.969c-2.151,0-4.213,2.075-5.73,0.551c-1.517-1.524-2.365-2.124-2.356-4.275
						L847.896,1935.672z"/>
					
						<linearGradient id="SVGID_00000114777867332538611670000017252479300977028776_" gradientUnits="userSpaceOnUse" x1="1234.1276" y1="1555.606" x2="1895.051" y2="1056.5417">
						<stop  offset="0" style="stop-color:#09005D"/>
						<stop  offset="1" style="stop-color:#1A0F91"/>
					</linearGradient>
					<path style="fill:url(#SVGID_00000114777867332538611670000017252479300977028776_);" d="M1170.742,1440.398
						c15.434,0,26.027,14.679,26.027,30.112v422.389H977.374v-452.501H1170.742z"/>
					
						<linearGradient id="SVGID_00000108272864643313987080000014911056696859793043_" gradientUnits="userSpaceOnUse" x1="2560.9854" y1="502.5528" x2="1859.5958" y2="1048.8273">
						<stop  offset="0" style="stop-color:#09005D"/>
						<stop  offset="1" style="stop-color:#1A0F91"/>
					</linearGradient>
					<path style="fill:url(#SVGID_00000108272864643313987080000014911056696859793043_);" d="M979.294,1440.398h158.153
						c15.433,0,25.041,14.679,25.041,30.112v422.389H949.95V1470.51C949.95,1455.077,963.86,1440.398,979.294,1440.398z"/>
				</g>
			</g>
			
				<linearGradient id="SVGID_00000022531255633543060100000017215924975179168171_" gradientUnits="userSpaceOnUse" x1="-340.1258" y1="1891.4241" x2="-156.2018" y2="1891.4241" gradientTransform="matrix(-1 0 0 1 1583.2321 0)">
				<stop  offset="0" style="stop-color:#09005D"/>
				<stop  offset="1" style="stop-color:#1A0F91"/>
			</linearGradient>
			<path style="fill:url(#SVGID_00000022531255633543060100000017215924975179168171_);" d="M1922.852,1934.035h-183.418
				c0,0,41.646-89.494,117.848-85.063C1933.485,1853.402,1922.852,1934.035,1922.852,1934.035z"/>
		</g>
		<g>
			
				<linearGradient id="SVGID_00000157291478568455540140000000715556957676826243_" gradientUnits="userSpaceOnUse" x1="2014.262" y1="85.8928" x2="1716.2424" y2="635.5724" gradientTransform="matrix(0.5058 0.8627 -0.8627 0.5058 1579.4093 -1141.0717)">
				<stop  offset="0" style="stop-color:#FF928E"/>
				<stop  offset="1" style="stop-color:#FE7062"/>
			</linearGradient>
			<path style="fill:url(#SVGID_00000157291478568455540140000000715556957676826243_);" d="M2297.476,780.78l-9.002-73.104
				c-0.7-5.686-4.154-10.662-9.234-13.309l-65.327-34.026c-12.793-6.664-12.392-25.104,0.68-31.205l66.743-31.153
				c5.192-2.424,8.858-7.245,9.803-12.894l12.175-72.644c2.383-14.226,20.046-19.544,29.888-8.998l50.253,53.851
				c3.908,4.187,9.626,6.184,15.293,5.338l72.85-10.869c14.266-2.128,24.781,13.026,17.793,25.644l-35.685,64.436
				c-2.776,5.011-2.907,11.067-0.353,16.194l32.85,65.925c6.433,12.912-4.731,27.594-18.891,24.846l-72.309-14.027
				c-5.624-1.09-11.423,0.655-15.51,4.67l-52.549,51.613C2316.655,801.177,2299.24,795.097,2297.476,780.78z"/>
			<path style="opacity:0.7;fill:#FFFFFF;" d="M2303.985,598.684c1.855-3.379,3.116-7.017,3.751-10.816l7.953-47.44
				c0.836-4.987,4.361-8.988,9.206-10.446c4.839-1.458,9.987-0.065,13.436,3.628l32.821,35.169
				c7.688,8.238,18.934,12.165,30.081,10.504l47.579-7.1c4.998-0.746,9.894,1.371,12.778,5.523
				c2.878,4.159,3.147,9.484,0.701,13.906l-11.908,21.502l-3.271-1.811l11.907-21.502c1.784-3.218,1.571-6.945-0.503-9.962
				c-2.097-3.019-5.516-4.498-9.153-3.956l-47.579,7.099c-12.367,1.844-24.84-2.511-33.368-11.65l-32.822-35.167
				c-2.508-2.688-6.104-3.66-9.625-2.601c-3.52,1.058-5.982,3.855-6.59,7.482l-7.954,47.44c-0.706,4.213-2.106,8.251-4.16,11.996
				L2303.985,598.684z"/>
			<path style="opacity:0.7;fill:#FFFFFF;" d="M2239.054,652.202c-1.208-2.06-1.85-4.454-1.795-6.962
				c0.11-5.056,3.024-9.522,7.605-11.661l33.348-15.567l1.582,3.391l-33.347,15.567c-3.332,1.553-5.368,4.675-5.448,8.35
				c-0.08,3.677,1.818,6.885,5.082,8.581l42.657,22.222c10.957,5.702,18.641,16.766,20.149,29.039l5.88,47.742
				c0.453,3.648,2.797,6.548,6.261,7.763c3.471,1.212,7.109,0.397,9.731-2.18l34.323-33.709c8.921-8.76,21.57-12.567,33.836-10.183
				l47.229,9.156c3.611,0.7,7.093-0.627,9.318-3.553c2.226-2.928,2.574-6.638,0.934-9.927l-21.458-43.059
				c-2.218-4.453-3.525-9.226-3.882-14.191l3.728-0.268c0.324,4.474,1.502,8.779,3.504,12.791l21.455,43.057
				c2.255,4.525,1.757,9.835-1.303,13.859c-3.06,4.025-8.045,5.927-13.006,4.962l-47.228-9.157
				c-11.061-2.147-22.466,1.285-30.504,9.181l-34.322,33.711c-3.605,3.542-8.811,4.709-13.585,3.043
				c-4.771-1.669-8.12-5.821-8.741-10.836l-5.878-47.743c-1.361-11.067-8.284-21.039-18.168-26.177l-42.658-22.223
				C2242.093,656.042,2240.281,654.294,2239.054,652.202z"/>
			
				<rect x="2437.937" y="616.708" transform="matrix(0.4846 -0.8747 0.8747 0.4846 719.2109 2457.7708)" style="opacity:0.7;fill:#FFFFFF;" width="14.564" height="3.739"/>
		</g>
		<g>
			
				<linearGradient id="SVGID_00000130629168218775324880000008491906204921816508_" gradientUnits="userSpaceOnUse" x1="3468.9941" y1="1217.3247" x2="3585.637" y2="1217.3247" gradientTransform="matrix(0.8959 0.4443 -0.4443 0.8959 276.9473 -760.3326)">
				<stop  offset="0" style="stop-color:#FEBBBA"/>
				<stop  offset="1" style="stop-color:#FF928E"/>
			</linearGradient>
			<path style="fill:url(#SVGID_00000130629168218775324880000008491906204921816508_);" d="M2908.553,1831.458
				c0,0-44.158,78.008,8.529,155.184l-37.454,31.372c0,0-46.273-72.755,10.24-180.58c1.622-3.094,2-6.693,1.132-10.077
				l-5.967-23.263c-2.273-8.863-0.096-18.278,5.836-25.244l5.514-6.474c1.846-2.167,5.255-1.96,6.825,0.414l1.046,1.582
				c3.33,5.035,4.992,10.99,4.753,17.022l1.534,14.628c-0.279,7.037-0.876,9.752,5.678,12.326l11.624,5.927L2908.553,1831.458z"/>
			<g>
				
					<linearGradient id="SVGID_00000008858983975424491100000007833367917834467718_" gradientUnits="userSpaceOnUse" x1="2679.4319" y1="1179.5591" x2="3131.2881" y2="815.3762">
					<stop  offset="0" style="stop-color:#FF928E"/>
					<stop  offset="1" style="stop-color:#FE7062"/>
				</linearGradient>
				<path style="fill:url(#SVGID_00000008858983975424491100000007833367917834467718_);" d="M2678.799,1293.283l-13.031-105.812
					c-1.014-8.23-6.012-15.433-13.365-19.264l-94.556-49.251c-18.517-9.646-17.936-36.337,0.984-45.168l96.606-45.092
					c7.515-3.509,12.821-10.487,14.19-18.663l17.623-105.148c3.45-20.591,29.016-28.288,43.261-13.024l72.738,77.946
					c5.657,6.06,13.934,8.951,22.135,7.727l105.447-15.732c20.649-3.081,35.869,18.854,25.754,37.118l-51.651,93.266
					c-4.018,7.253-4.208,16.019-0.511,23.44l47.548,95.422c9.311,18.689-6.847,39.941-27.344,35.964l-104.662-20.303
					c-8.14-1.578-16.534,0.949-22.449,6.759l-76.062,74.707C2706.559,1322.807,2681.352,1314.007,2678.799,1293.283z"/>
				<path style="opacity:0.7;fill:#FFFFFF;" d="M2688.219,1029.711c2.685-4.891,4.51-10.156,5.43-15.656l11.511-68.666
					c1.21-7.218,6.313-13.01,13.326-15.12c7.004-2.109,14.455-0.094,19.448,5.252l47.506,50.904
					c11.128,11.924,27.405,17.608,43.54,15.204l68.868-10.276c7.234-1.081,14.32,1.984,18.494,7.994
					c4.166,6.02,4.555,13.728,1.014,20.127l-17.236,31.122l-4.735-2.621l17.236-31.123c2.581-4.659,2.273-10.053-0.728-14.42
					c-3.035-4.37-7.985-6.511-13.249-5.725l-68.867,10.276c-17.9,2.669-35.955-3.635-48.298-16.863l-47.507-50.902
					c-3.63-3.89-8.836-5.297-13.931-3.764c-5.095,1.532-8.659,5.58-9.54,10.83l-11.512,68.666
					c-1.022,6.099-3.049,11.943-6.022,17.364L2688.219,1029.711z"/>
				<path style="opacity:0.7;fill:#FFFFFF;" d="M2594.237,1107.175c-1.749-2.982-2.678-6.447-2.599-10.077
					c0.159-7.318,4.378-13.782,11.008-16.878l48.268-22.532l2.29,4.909l-48.268,22.531c-4.822,2.248-7.77,6.766-7.885,12.086
					c-0.117,5.323,2.631,9.965,7.355,12.42l61.743,32.165c15.858,8.253,26.982,24.268,29.165,42.032l8.511,69.104
					c0.656,5.28,4.049,9.477,9.062,11.237c5.024,1.754,10.291,0.575,14.085-3.155l49.681-48.792
					c12.912-12.68,31.221-18.19,48.975-14.739l68.36,13.252c5.227,1.014,10.267-0.907,13.487-5.143
					c3.222-4.239,3.726-9.609,1.352-14.369l-31.058-62.326c-3.21-6.444-5.103-13.354-5.619-20.54l5.396-0.388
					c0.47,6.476,2.174,12.707,5.072,18.514l31.055,62.323c3.263,6.549,2.543,14.235-1.886,20.059
					c-4.429,5.825-11.645,8.58-18.826,7.183l-68.36-13.255c-16.009-3.108-32.518,1.86-44.153,13.289l-49.679,48.794
					c-5.218,5.127-12.753,6.815-19.664,4.404c-6.906-2.416-11.754-8.426-12.653-15.686l-8.509-69.104
					c-1.969-16.019-11.99-30.452-26.296-37.89l-61.745-32.166C2598.635,1112.734,2596.013,1110.203,2594.237,1107.175z"/>
				
					<rect x="2882.105" y="1055.8" transform="matrix(0.4846 -0.8748 0.8748 0.4846 565.0258 3075.9365)" style="opacity:0.7;fill:#FFFFFF;" width="21.081" height="5.413"/>
			</g>
			<g>
				
					<linearGradient id="SVGID_00000068640676032900302620000008312311591981776536_" gradientUnits="userSpaceOnUse" x1="3727.3362" y1="2213.5225" x2="3922.229" y2="2213.5225" gradientTransform="matrix(1 0 0 1 -748.7954 0)">
					<stop  offset="0" style="stop-color:#FEBBBA"/>
					<stop  offset="1" style="stop-color:#FF928E"/>
				</linearGradient>
				<path style="fill:url(#SVGID_00000068640676032900302620000008312311591981776536_);" d="M2978.541,2033.607
					c0,0,104.256,227.229,158.956,321.346c0,0,10.864,59.221,0,77.844l-9.259,4.115l43.21-1.286c0,0,3.839-79.658,0.841-84.107
					c-2.998-4.45-8.993-4.158-8.993-4.158s-18.529-146.79-72.187-178.119l-52.002-179.109L2978.541,2033.607z"/>
				
					<linearGradient id="SVGID_00000021829840894926341300000012626790593872226484_" gradientUnits="userSpaceOnUse" x1="3734.2693" y1="2937.2964" x2="3596.0149" y2="3372.2917" gradientTransform="matrix(1 0 0 1 -748.7954 0)">
					<stop  offset="0" style="stop-color:#4F52FF"/>
					<stop  offset="1" style="stop-color:#4042E2"/>
				</linearGradient>
				<path style="fill:url(#SVGID_00000021829840894926341300000012626790593872226484_);" d="M3109.784,2448.068
					c-0.065,1.042,33.741,0.566,52.105,0.23c6.78-0.124,12.561-4.889,14.006-11.516l13.868-72.857
					c1.318-6.925-3.079-13.65-9.95-15.22l-7.74-1.77c0,0-11.043,15.148-7.567,29.41c3.477,14.262,6.57,51.205-2.214,55.51
					c-8.784,4.305-34.054,5.057-34.054,5.057S3110.361,2438.685,3109.784,2448.068z"/>
				
					<linearGradient id="SVGID_00000178902767790579853370000007878598789200079036_" gradientUnits="userSpaceOnUse" x1="3546.8804" y1="2877.7383" x2="3408.6257" y2="3312.7339" gradientTransform="matrix(1 0 0 1 -748.7954 0)">
					<stop  offset="0" style="stop-color:#4F52FF"/>
					<stop  offset="1" style="stop-color:#4042E2"/>
				</linearGradient>
				<path style="fill:url(#SVGID_00000178902767790579853370000007878598789200079036_);" d="M2879.724,2449.39
					c-3.419,1.948-2.009,7.168,1.926,7.129c30.731-0.309,99.593-1.281,105.712-3.825c7.9-3.286-2.879-31.674-14.223-41.282
					l-62.637,20.443L2879.724,2449.39z"/>
				
					<linearGradient id="SVGID_00000078036551575013461370000000428923213123953587_" gradientUnits="userSpaceOnUse" x1="3609.0764" y1="2228.0142" x2="3721.9346" y2="2228.0142" gradientTransform="matrix(1 0 0 1 -748.7954 0)">
					<stop  offset="0" style="stop-color:#FEBBBA"/>
					<stop  offset="1" style="stop-color:#FF928E"/>
				</linearGradient>
				<path style="fill:url(#SVGID_00000078036551575013461370000000428923213123953587_);" d="M2860.281,2019.116
					c0,0,67.373,325.925,86.431,389.503l-45.086,28.293c0,0,22.595-3.843,39.348-5.057c16.755-1.214,32.165-20.443,32.165-20.443
					l-5.401-8.615c0,0-16.896-324.152-12.782-360.959L2860.281,2019.116z"/>
				
					<linearGradient id="SVGID_00000075849926959502741390000012838931082856573069_" gradientUnits="userSpaceOnUse" x1="3365.9585" y1="1381.2769" x2="3586.8999" y2="1381.2769" gradientTransform="matrix(1 0 0 1 -748.7954 0)">
					<stop  offset="0" style="stop-color:#FEBBBA"/>
					<stop  offset="1" style="stop-color:#FF928E"/>
				</linearGradient>
				<path style="fill:url(#SVGID_00000075849926959502741390000012838931082856573069_);" d="M2693.038,1258.892
					c0,0-9.293,169.543,145.066,256.18l-37.162,84.758c0,0-139.752-84.529-134.584-315.074c0.148-6.616-2.238-13.041-6.559-18.053
					l-29.702-34.458c-11.316-13.128-15.545-30.937-11.339-47.752l3.91-15.627c1.309-5.233,7.268-7.75,11.931-5.041l3.106,1.804
					c9.888,5.743,17.72,14.449,22.39,24.888l14.914,23.534c5.448,12.178,6.719,17.287,20.01,16.139l24.714,0.278L2693.038,1258.892z
					"/>
				
					<linearGradient id="SVGID_00000167359014531263671840000009324503659397627786_" gradientUnits="userSpaceOnUse" x1="2974.6638" y1="1516.4265" x2="3381.1162" y2="930.3793">
					<stop  offset="0" style="stop-color:#4F52FF"/>
					<stop  offset="1" style="stop-color:#4042E2"/>
				</linearGradient>
				<path style="fill:url(#SVGID_00000167359014531263671840000009324503659397627786_);" d="M2832.731,1502.368
					c25.824,7.161,113.312,30.176,167.929,29.236l-33.533,189.237l2.669,30.865l-109.335-0.49c0,0-30.778-71.479-55.062-107.117
					c-7.013-10.293-1.794-22.569,2.182-34.373l-5.462-3.637c-5.558-3.699-7.968-10.65-5.893-16.996l26.625-81.461
					C2824.233,1503.526,2828.556,1501.21,2832.731,1502.368z"/>
				
					<linearGradient id="SVGID_00000110467329028475864780000015947633321932712600_" gradientUnits="userSpaceOnUse" x1="3509.4326" y1="1718.1664" x2="3871.3704" y2="2126.3516" gradientTransform="matrix(1 0 0 1 -748.7954 0)">
					<stop  offset="0" style="stop-color:#09005D"/>
					<stop  offset="1" style="stop-color:#1A0F91"/>
				</linearGradient>
				<path style="fill:url(#SVGID_00000110467329028475864780000015947633321932712600_);" d="M2851.7,1735.064l2.151,18.7
					c0,0-30.897,92.532,15.449,308.651c0,0,100.377,28.437,182.876-39.609c0,0-23.272-203.984-29.628-213.485
					c-31.661-47.327-52.752-57.616-52.752-57.616l-0.951-20.428C2968.844,1731.277,2880.606,1747.23,2851.7,1735.064z"/>
				
					<linearGradient id="SVGID_00000093895132313017186620000012257503025473771703_" gradientUnits="userSpaceOnUse" x1="3643.2896" y1="1489.749" x2="3712.3528" y2="1489.749" gradientTransform="matrix(1 0 0 1 -748.7954 0)">
					<stop  offset="0" style="stop-color:#FEBBBA"/>
					<stop  offset="1" style="stop-color:#FF928E"/>
				</linearGradient>
				<path style="fill:url(#SVGID_00000093895132313017186620000012257503025473771703_);" d="M2894.499,1517.62
					c-0.383-0.507,22.826-70.073,22.826-70.073l33.246,3.015l12.987,78.92C2963.558,1529.482,2911.456,1539.999,2894.499,1517.62z"
					/>
				
					<linearGradient id="SVGID_00000142173937042456515170000008419217307462526337_" gradientUnits="userSpaceOnUse" x1="3753.053" y1="1400.4991" x2="4255.7441" y2="1434.6821" gradientTransform="matrix(1 0 0 1 -748.7954 0)">
					<stop  offset="0" style="stop-color:#FEBBBA"/>
					<stop  offset="1" style="stop-color:#FF928E"/>
				</linearGradient>
				<path style="fill:url(#SVGID_00000142173937042456515170000008419217307462526337_);" d="M2942.611,1337.84
					c-2.217,1.38-71.041,29.823-56.254,101.275c0.873,4.222,3.691,7.801,7.629,9.557c10.1,4.505,31.843,12.219,57.849,9.576
					c36.054-3.665,59.68-66.581,58.675-84.888C3009.506,1355.052,2964.582,1324.159,2942.611,1337.84z"/>
				
					<linearGradient id="SVGID_00000111884454668969675530000002455898666507252631_" gradientUnits="userSpaceOnUse" x1="3835.6775" y1="1370.1975" x2="3658.7307" y2="1724.0905" gradientTransform="matrix(1 0 0 1 -748.7954 0)">
					<stop  offset="0" style="stop-color:#09005D"/>
					<stop  offset="1" style="stop-color:#1A0F91"/>
				</linearGradient>
				<path style="fill:url(#SVGID_00000111884454668969675530000002455898666507252631_);" d="M2963.558,1310.061
					c-1.81,0.237-39.773,13.459-20.947,40.969c18.827,27.509,25.889,43.703,16.984,55.783c-8.113,11.005-26.084,4.733-24.516,27.629
					c0.313,4.583-1.668,9.033-5.472,11.608c-16.935,11.463-58.252,46.746-17.317,97.066c3.327,4.09,4.013,9.736,1.445,14.34
					c-11.99,21.505-37.174,84.503,54.002,119.448c90.096,34.531,122.625-24.363,131.713-47.902c1.965-5.092,6.978-8.209,12.43-7.951
					c9.9,0.468,23.929-1.179,23.284-14.41c-0.392-8.036-5.406-15.237-11.33-21.011c-5.865-5.714-4.707-15.72,2.413-19.765
					c5.378-3.056,10.137-7.826,12.146-15.269c5.46-20.232-5.44-80.728-63.427-90.98c-4.838-0.855-9.902-5.391-10.607-10.251
					c-0.011-0.073-0.022-0.145-0.033-0.217c-0.778-4.701,0.813-9.508,4.656-12.327c9.259-6.792,21.133-20.467,11.488-42.396
					c-8.554-19.449-24.959-26.01-37.145-28.102c-7.155-1.228-11.859-7.993-10.351-15.094
					C3037.085,1331.88,3033.502,1300.891,2963.558,1310.061z"/>
			</g>
			<g>
				
					<linearGradient id="SVGID_00000054240448908970184790000010278189831388202172_" gradientUnits="userSpaceOnUse" x1="2682.8159" y1="2849.7043" x2="2694.7129" y2="2849.7043">
					<stop  offset="0" style="stop-color:#09005D"/>
					<stop  offset="1" style="stop-color:#1A0F91"/>
				</linearGradient>
				<path style="fill:url(#SVGID_00000054240448908970184790000010278189831388202172_);" d="M2688.764,3242.338
					c3.285,0,5.948-2.893,5.948-6.462v-772.345c0-3.569-2.663-6.461-5.948-6.461c-3.286,0-5.948,2.893-5.948,6.461v772.345
					C2682.816,3239.446,2685.479,3242.338,2688.764,3242.338z"/>
				
					<linearGradient id="SVGID_00000069368450491166707010000007488821824815901113_" gradientUnits="userSpaceOnUse" x1="2941.804" y1="2849.7043" x2="2953.7007" y2="2849.7043">
					<stop  offset="0" style="stop-color:#09005D"/>
					<stop  offset="1" style="stop-color:#1A0F91"/>
				</linearGradient>
				<path style="fill:url(#SVGID_00000069368450491166707010000007488821824815901113_);" d="M2947.752,3242.338
					c3.286,0,5.948-2.893,5.948-6.462v-772.345c0-3.569-2.663-6.461-5.948-6.461c-3.285,0-5.948,2.893-5.948,6.461v772.345
					C2941.804,3239.446,2944.467,3242.338,2947.752,3242.338z"/>
				<path style="fill:#7D97F4;" d="M3246.006,3247.237c0.777,0,1.565-0.167,2.325-0.518c3.023-1.395,4.433-5.189,3.147-8.476
					l-304.185-777.241c-1.285-3.284-4.783-4.811-7.801-3.417c-3.023,1.396-4.433,5.189-3.147,8.476l304.184,777.242
					C3241.492,3245.76,3243.693,3247.237,3246.006,3247.237z"/>
				<path style="fill:#7D97F4;" d="M3058.115,3247.237c0.778,0,1.565-0.167,2.325-0.518c3.023-1.395,4.432-5.189,3.147-8.476
					l-304.184-777.241c-1.286-3.284-4.782-4.811-7.802-3.417c-3.023,1.396-4.432,5.189-3.147,8.476l304.184,777.242
					C3053.6,3245.76,3055.802,3247.237,3058.115,3247.237z"/>
				<path style="fill:#7D97F4;" d="M2673.208,2488.068h569.357c1.139,0,2.063-0.923,2.063-2.062v-31.518
					c0-1.139-0.923-2.062-2.063-2.062h-569.357c-1.139,0-2.062,0.923-2.062,2.062v31.518
					C2671.145,2487.144,2672.069,2488.068,2673.208,2488.068z"/>
				<path style="fill:#7D97F4;" d="M2799.882,2588.839h188.448c3.286,0,5.949-2.892,5.949-6.461c0-3.569-2.663-6.462-5.949-6.462
					h-188.448c-3.285,0-5.948,2.892-5.948,6.462C2793.934,2585.947,2796.597,2588.839,2799.882,2588.839z"/>
				<rect x="2857.705" y="2722.913" style="fill:#7D97F4;" width="188.448" height="12.923"/>
				<rect x="2913.682" y="2869.909" style="fill:#7D97F4;" width="188.448" height="12.923"/>
				<path style="fill:#7D97F4;" d="M2972.385,3029.829h188.448c3.285,0,5.948-2.893,5.948-6.462c0-3.569-2.663-6.462-5.948-6.462
					h-188.448c-3.285,0-5.949,2.893-5.949,6.462C2966.437,3026.936,2969.1,3029.829,2972.385,3029.829z"/>
				<path style="fill:#7D97F4;" d="M3029.14,3176.827h188.448c3.285,0,5.948-2.892,5.948-6.461c0-3.569-2.663-6.462-5.948-6.462
					H3029.14c-3.285,0-5.948,2.892-5.948,6.462C3023.191,3173.935,3025.854,3176.827,3029.14,3176.827z"/>
			</g>
		</g>
		<g>
			
				<linearGradient id="SVGID_00000064318685460378778610000007384105969972995998_" gradientUnits="userSpaceOnUse" x1="-6289.2319" y1="2940.2317" x2="-6204.9404" y2="2940.2317" gradientTransform="matrix(0.9987 0.0507 -0.0507 0.9987 6967.5215 595.7192)">
				<stop  offset="0" style="stop-color:#09005D"/>
				<stop  offset="1" style="stop-color:#1A0F91"/>
			</linearGradient>
			<path style="fill:url(#SVGID_00000064318685460378778610000007384105969972995998_);" d="M550.617,3184.196
				c0,0-10.101,14.271-14.549,55.435c-0.414,3.836,2.466,7.267,6.319,7.462l73.161,3.711c2.944,0.15,5.191-2.63,4.39-5.467
				c-3.644-12.906-15.038-44.499-43.064-63.644L550.617,3184.196z"/>
			
				<linearGradient id="SVGID_00000111189974965892134700000003088201982435383737_" gradientUnits="userSpaceOnUse" x1="-6317.415" y1="2463.7144" x2="-6283.2285" y2="2463.7144" gradientTransform="matrix(0.9937 -0.112 0.112 0.9937 6544.4551 24.4975)">
				<stop  offset="0" style="stop-color:#FEBBBA"/>
				<stop  offset="1" style="stop-color:#FF928E"/>
			</linearGradient>
			<path style="fill:url(#SVGID_00000111189974965892134700000003088201982435383737_);" d="M540.699,3161.816l8.009,34.059
				c0.691,2.938,3.295,5.06,6.313,5.067c4.033,0.01,9.857-0.32,15.376-1.881c5.017-1.419,8.183-6.388,7.599-11.569l-3.758-33.332
				L540.699,3161.816z"/>
			
				<linearGradient id="SVGID_00000076597982839349489930000000483989797389206672_" gradientUnits="userSpaceOnUse" x1="-6082.0747" y1="2698.2578" x2="-5949.8208" y2="2698.2578" gradientTransform="matrix(0.9994 0.0349 -0.0349 0.9994 6875.4536 734.0373)">
				<stop  offset="0" style="stop-color:#09005D"/>
				<stop  offset="1" style="stop-color:#1A0F91"/>
			</linearGradient>
			<path style="fill:url(#SVGID_00000076597982839349489930000000483989797389206672_);" d="M717.697,3186.727
				c0,0-14.772,21.292-15.515,51.199c-0.175,7.044,5.525,12.859,12.567,13.105l113.704,3.965c5.324,0.185,7.724-6.581,3.474-9.792
				c-20.989-15.859-62.294-45.559-92.494-57.719L717.697,3186.727z"/>
			
				<linearGradient id="SVGID_00000042729457322554321660000005544897318950911922_" gradientUnits="userSpaceOnUse" x1="-6022.936" y1="2916.4829" x2="-5988.9385" y2="2916.4829" gradientTransform="matrix(0.9907 0.1362 -0.1362 0.9907 7076.7373 1097.9357)">
				<stop  offset="0" style="stop-color:#FEBBBA"/>
				<stop  offset="1" style="stop-color:#FF928E"/>
			</linearGradient>
			<path style="fill:url(#SVGID_00000042729457322554321660000005544897318950911922_);" d="M714.864,3150.425l2.913,43.711
				c0.326,4.889,4.538,8.725,9.421,8.319c2.968-0.247,6.535-1.011,10.479-2.782c3.747-1.683,6.06-5.547,5.905-9.652l-1.978-52.742
				L714.864,3150.425z"/>
			
				<linearGradient id="SVGID_00000015345635375208731330000006924732410051889077_" gradientUnits="userSpaceOnUse" x1="-6340.9072" y1="2166.7659" x2="-6109.1162" y2="2166.7659" gradientTransform="matrix(0.9937 -0.112 0.112 0.9937 6544.4551 24.4975)">
				<stop  offset="0" style="stop-color:#09005D"/>
				<stop  offset="1" style="stop-color:#1A0F91"/>
			</linearGradient>
			<path style="fill:url(#SVGID_00000015345635375208731330000006924732410051889077_);" d="M488.498,2573.861
				c0,0-27.5,30.363-29.595,63.4c-2.095,33.036,79.287,556.975,79.287,556.975s31.107,1.637,45.771-9.675
				c0,0-19.851-343.748-14.562-424.294c0,0,114.319,345.508,142.148,407.127c0,0,29.819,0.262,38.674-6.405
				c0,0-71.217-456.553-104.907-535.351L488.498,2573.861z"/>
			<path style="fill:#666694;" d="M566.887,2750.401c0.533,0,1.072-0.093,1.6-0.296c2.293-0.887,3.438-3.461,2.556-5.757
				l-18.581-48.294c-0.403-1.044-1.183-1.896-2.189-2.395l-30.046-14.813c-2.197-1.09-4.873-0.18-5.963,2.023
				c-1.087,2.209-0.18,4.876,2.026,5.966l28.484,14.042l17.956,46.671C563.411,2749.316,565.098,2750.401,566.887,2750.401z"/>
			
				<linearGradient id="SVGID_00000025432649654512367810000010200034821814995859_" gradientUnits="userSpaceOnUse" x1="1357.9935" y1="1826.2919" x2="1130.3918" y2="1988.1422">
				<stop  offset="0" style="stop-color:#4F52FF"/>
				<stop  offset="1" style="stop-color:#4042E2"/>
			</linearGradient>
			<path style="fill:url(#SVGID_00000025432649654512367810000010200034821814995859_);" d="M755.531,2235.71
				c-129.746,3.822-160.342,34.21-160.342,34.21l72.768,90.556c0,0,126.023-16.735,208.661-96.695
				c-18.994-16.332-33.03-35.164-42.345-50.01C812.029,2226.101,785.795,2234.818,755.531,2235.71z"/>
			
				<linearGradient id="SVGID_00000116202345534840837520000015631956501500837301_" gradientUnits="userSpaceOnUse" x1="-5919.5039" y1="1472.8314" x2="-5793.1563" y2="1472.8314" gradientTransform="matrix(0.9937 -0.112 0.112 0.9937 6544.4551 24.4975)">
				<stop  offset="0" style="stop-color:#FEBBBA"/>
				<stop  offset="1" style="stop-color:#FF928E"/>
			</linearGradient>
			<path style="fill:url(#SVGID_00000116202345534840837520000015631956501500837301_);" d="M935.552,2024.332
				c-0.638-4.099-6.347-4.59-7.675-0.66l-12.457,36.849c-2.406,7.121-2.568,14.807-0.464,22.022l8.05,19.723
				c2.841,9.74,1.394,20.212-4.016,28.796c-12.947,20.541-41.164,58.57-84.717,82.71c9.315,14.846,23.35,33.678,42.345,50.01
				c30.321-29.338,54.81-67.177,65.078-115.839c7.195-3.13,11.385-10.709,10.209-18.467L935.552,2024.332z"/>
			<g>
				
					<linearGradient id="SVGID_00000103236180618216784670000015140429278367661705_" gradientUnits="userSpaceOnUse" x1="756.7372" y1="1808.1888" x2="102.4741" y2="3143.3403" gradientTransform="matrix(-1 0 0 1 1840.0065 0)">
					<stop  offset="0" style="stop-color:#FF928E"/>
					<stop  offset="1" style="stop-color:#FE7062"/>
				</linearGradient>
				<path style="fill:url(#SVGID_00000103236180618216784670000015140429278367661705_);" d="M1550.559,1936.553l-610.729-31.532
					c-11.976-0.618-22.067,6.611-22.419,16.062l-13.795,369.826c-0.355,9.514,9.27,17.559,21.338,17.812
					c110.573,2.323,601.487,12.708,623.103,14.386c21.362,1.659,22.968-295.849,23.039-369.269
					C1571.104,1944.761,1562.05,1937.147,1550.559,1936.553z"/>
				<path style="fill:#FFFFFF;" d="M1536.654,2309.649c-80.575-2.692-523.644-12.049-611.645-13.899l-0.134-0.004
					c-2.447-0.108-4.371-1.969-4.285-4.149l13.792-369.827c0.042-1.156,0.615-2.196,1.625-2.93c0.869-0.623,1.908-0.913,3.089-0.869
					l610.726,31.531c2.406,0.123,4.292,1.881,4.292,4.006c-0.175,181.628-6.233,320.831-15.432,354.641l-0.423,1.552
					L1536.654,2309.649z M938.444,1921.92l-13.846,369.605c0.024,0.031,0.177,0.147,0.369,0.159h0.129
					c87.43,1.838,525.32,11.084,610.066,13.848c8.887-36.05,14.717-173.406,14.948-351.802c-0.026-0.032-0.187-0.155-0.495-0.171
					l-610.716-31.531c-0.04,0-0.08,0-0.117,0C938.623,1922.031,938.488,1922.031,938.444,1921.92z"/>
				<path style="fill:#FFFFFF;" d="M1151.345,1979.333L1151.345,1979.333c-0.417,9.351-3.867,16.793-7.708,16.622l-169.757-7.562
					c-3.84-0.171-6.615-7.89-6.198-17.241l0,0c0.416-9.35,3.867-16.793,7.707-16.622l169.757,7.562
					C1148.986,1962.262,1151.761,1969.982,1151.345,1979.333z"/>
				<path style="fill:#FFFFFF;" d="M1150.608,2025.389L1150.608,2025.389c-0.208,4.676-3.49,8.327-7.33,8.156l-169.757-7.561
					c-3.84-0.171-6.784-4.099-6.576-8.776l0,0c0.208-4.676,3.49-8.327,7.33-8.156l169.757,7.561
					C1147.872,2016.785,1150.816,2020.713,1150.608,2025.389z"/>
				<path style="fill:#FFFFFF;" d="M1150.608,2060.652L1150.608,2060.652c-0.208,4.676-3.49,8.327-7.33,8.156l-169.757-7.562
					c-3.84-0.171-6.784-4.1-6.576-8.776l0,0c0.208-4.675,3.49-8.327,7.33-8.156l169.757,7.561
					C1147.872,2052.047,1150.816,2055.976,1150.608,2060.652z"/>
				<path style="fill:#FFFFFF;" d="M1186.085,2254.608c-3.723-0.426-6.083-0.703-6.734-0.781c-4.089-0.483-7.172-3.945-7.179-8.061
					l-0.226-128.294c-0.004-2.17,0.859-4.249,2.399-5.78c1.533-1.523,3.61-2.377,5.773-2.366c0.29,0.001,12.401-0.082,23.047-5.502
					c3.589-1.828,8.599-11.573,13.02-20.171c6.825-13.278,15.323-29.802,28.866-42.116c21.967-19.976,22.536-53.677,22.528-57.459
					c-0.013-8.297,7.684-19.602,18.008-22.31c6.307-1.657,18.546-1.49,29.638,18.259c13.861,24.673,3.168,54.54-3.908,74.307
					c-2.198,6.138-4.273,11.939-4.878,15.603c-0.026,0.153-0.039,0.274-0.044,0.37c3.826,3.063,22.831,2.313,34.286,1.851
					c6.048-0.244,12.302-0.493,18.363-0.503c21.179-0.038,45.654,3.674,46.971,32.951c0.542,12.098-5.533,20.399-11.305,25.498
					c8.323,8.959,12.116,18.132,11.293,27.368c-0.748,8.366-5.228,14.82-9.553,19.201c7.212,8.444,9.472,19.039,6.017,29.774
					c-2.392,7.431-7.286,13.813-13.305,18.064c3.612,5.192,3.578,10.291,3.191,12.992c-1.992,13.987-20.518,26.068-44.053,28.725
					C1319.798,2269.441,1214.209,2257.822,1186.085,2254.608z M1188.223,2124.974l0.2,113.526
					c28.267,3.209,131.726,14.538,158.053,11.568c18.72-2.113,29.183-10.664,29.779-14.855c0.229-1.612-2.582-3.931-6.994-5.774
					c-3.611-1.503-5.634-5.367-4.821-9.194c0.812-3.823,4.232-6.53,8.142-6.439c5.613,0.134,12.211-5.518,14.407-12.34
					c1.586-4.934,1.544-12.139-7.678-18.44c-2.328-1.589-3.666-4.271-3.536-7.089c0.13-2.814,1.709-5.364,4.176-6.732
					c0.049-0.03,9.215-5.476,9.859-13.247c0.625-7.541-6.862-15.35-13.254-20.572c-2.198-1.797-3.3-4.609-2.908-7.421
					c0.393-2.813,2.222-5.213,4.828-6.342c0.429-0.191,11.781-5.427,11.291-16.284c-0.366-8.194-0.758-17.478-30.695-17.426
					c-5.747,0.011-11.845,0.257-17.74,0.49c-21.955,0.884-39.299,1.576-47.344-7.527c-2.244-2.539-4.688-6.957-3.595-13.589
					c0.844-5.115,3.054-11.288,5.613-18.437c6.445-18,15.269-42.655,5.042-60.863c-3.965-7.058-8.212-11.136-11.107-10.543
					c-3.036,0.584-5.89,5.117-6.108,6.786c0.017,4.329-0.689,44.645-27.842,69.335c-11.369,10.337-18.792,24.778-25.344,37.52
					c-6.612,12.86-11.832,23.016-20.102,27.226C1202.544,2122.39,1194.173,2124.184,1188.223,2124.974z M1306.394,2070.559
					L1306.394,2070.559L1306.394,2070.559z"/>
			</g>
			
				<linearGradient id="SVGID_00000036940361946719952770000015133283055843896507_" gradientUnits="userSpaceOnUse" x1="803.8185" y1="2292.7161" x2="110.8947" y2="3132.3171">
				<stop  offset="0" style="stop-color:#4F52FF"/>
				<stop  offset="1" style="stop-color:#4042E2"/>
			</linearGradient>
			<path style="fill:url(#SVGID_00000036940361946719952770000015133283055843896507_);" d="M804.216,2287.479
				c-50.749-43.658-139.427-55.97-190.351-59.393c-22.31-1.499-42.489,13.097-47.888,34.795
				c-15.651,62.902-59.021,226.849-67.816,255.177c-7.216,23.24-14.919,46.012-19.838,60.262
				c-2.939,8.512,1.515,17.799,10.014,20.776c44.268,15.504,122.399,29.883,154.035,35.362c6.959,1.205,13.097-4.609,12.306-11.627
				c-0.671-5.951,0.288-11.975,2.775-17.422l94.204-206.381c81.339,72.015,145.482,72.206,192.143,49.175
				c-11.028-24.354-19.235-49.073-24.662-74.154C845.893,2369.839,804.216,2287.479,804.216,2287.479z"/>
			
				<linearGradient id="SVGID_00000056411953688260932730000005322664993318172826_" gradientUnits="userSpaceOnUse" x1="-5633.397" y1="1500.376" x2="-5906.4058" y2="1840.0251" gradientTransform="matrix(0.9937 -0.112 0.112 0.9937 6544.4551 24.4975)">
				<stop  offset="0" style="stop-color:#FEBBBA"/>
				<stop  offset="1" style="stop-color:#FF928E"/>
			</linearGradient>
			<path style="fill:url(#SVGID_00000056411953688260932730000005322664993318172826_);" d="M1036.39,2347.202l-14.917-15.828
				c-38.732,33.565-73.052,44.356-102.335,42.673c5.427,25.082,13.634,49.801,24.662,74.154
				C1005.272,2417.861,1036.39,2347.202,1036.39,2347.202z"/>
			
				<linearGradient id="SVGID_00000005984988687943391240000015828746993014870190_" gradientUnits="userSpaceOnUse" x1="-5581.6353" y1="1541.9727" x2="-5854.6523" y2="1881.632" gradientTransform="matrix(0.9937 -0.112 0.112 0.9937 6544.4551 24.4975)">
				<stop  offset="0" style="stop-color:#FEBBBA"/>
				<stop  offset="1" style="stop-color:#FF928E"/>
			</linearGradient>
			<path style="fill:url(#SVGID_00000005984988687943391240000015828746993014870190_);" d="M1027.281,2348.546l73.379-5.389
				l63.029-45.153c-10.337-4.964-63.543,13.563-63.543,13.563s-58.051-2.197-73.502-0.475c-12.832,1.43-8.919,19.673-7.225,25.815
				c0.346,1.253,0.6,2.002,0.6,2.002L1027.281,2348.546z"/>
			
				<linearGradient id="SVGID_00000096048213622460782470000001775887918891208088_" gradientUnits="userSpaceOnUse" x1="-5940.5439" y1="1295.123" x2="-6204.9507" y2="1780.9442" gradientTransform="matrix(0.9937 -0.112 0.112 0.9937 6544.4551 24.4975)">
				<stop  offset="0" style="stop-color:#FEBBBA"/>
				<stop  offset="1" style="stop-color:#FF928E"/>
			</linearGradient>
			<path style="fill:url(#SVGID_00000096048213622460782470000001775887918891208088_);" d="M672.409,2130.795l-27.941,98.408
				c0,0,47.746,25.663,83.05,18.727l9.701-86.747L672.409,2130.795z"/>
			<g>
				
					<linearGradient id="SVGID_00000022546015893868268430000015651594135784799883_" gradientUnits="userSpaceOnUse" x1="-4940.2798" y1="-431.9974" x2="-4978.4185" y2="-557.7881" gradientTransform="matrix(0.746 -0.6659 0.6659 0.746 4739.8975 -803.1727)">
					<stop  offset="0" style="stop-color:#FEBBBA"/>
					<stop  offset="1" style="stop-color:#FF928E"/>
				</linearGradient>
				<path style="fill:url(#SVGID_00000022546015893868268430000015651594135784799883_);" d="M747.22,2084.306
					c0,0,36.85,69.367,32.127,97.388c-4.724,28.021-50.394,26.009-90.275,3.252l-27.868-74.902L747.22,2084.306z"/>
				
					<linearGradient id="SVGID_00000112634842640884818590000006405165613551686546_" gradientUnits="userSpaceOnUse" x1="-4974.6885" y1="-651.1689" x2="-4942.7856" y2="-469.2049" gradientTransform="matrix(0.746 -0.6659 0.6659 0.746 4739.8975 -803.1727)">
					<stop  offset="0" style="stop-color:#09005D"/>
					<stop  offset="1" style="stop-color:#1A0F91"/>
				</linearGradient>
				<path style="fill:url(#SVGID_00000112634842640884818590000006405165613551686546_);" d="M690.834,2148.161
					c1.621-0.719,2.219-2.701,1.248-4.184c-2.952-4.51-8.487-13.712-10.252-21.768c0,0-6.625-4.242,16.861-9.864
					c23.486-5.622,58.509-14.347,65.87-34.337c7.177-19.491-11.681-68.505-41.767-29.451c-1.145,1.486-3.388,1.519-4.53,0.031
					c-4.932-6.419-17.899-19.743-35.902-11.665c-16.847,7.559-18.745,19.903-18.513,26.126c0.068,1.831-1.568,3.253-3.367,2.91
					c-8.519-1.624-28.958-3.02-38.499,17.949c-7.858,17.271-2.75,27.048,1.902,31.829c1.507,1.549,0.846,4.1-1.22,4.733
					c-5.599,1.713-12.827,6.46-12.104,19.576c1.001,18.131,21.273,16.533,27.044,15.707c0.945-0.136,1.898,0.189,2.538,0.898
					c4.949,5.476,27.246,28.73,51.378,31.533c2.09,0.242,3.709-1.822,3.025-3.811l-10.443-30.357
					c-0.486-1.411,0.189-2.957,1.552-3.561L690.834,2148.161z"/>
				
					<linearGradient id="SVGID_00000165912616789455683940000001695720493268624019_" gradientUnits="userSpaceOnUse" x1="-4979.2666" y1="-432.583" x2="-5013.5811" y2="-545.7595" gradientTransform="matrix(0.746 -0.6659 0.6659 0.746 4739.8975 -803.1727)">
					<stop  offset="0" style="stop-color:#FEBBBA"/>
					<stop  offset="1" style="stop-color:#FF928E"/>
				</linearGradient>
				<path style="fill:url(#SVGID_00000165912616789455683940000001695720493268624019_);" d="M695.033,2152.47
					c0,0-26.238-18.002-28.156-2.842c-1.917,15.16,23.628,21.958,36.28,16.307L695.033,2152.47z"/>
			</g>
		</g>
		<g>
			
				<linearGradient id="SVGID_00000129887913602128916200000015646329572735814327_" gradientUnits="userSpaceOnUse" x1="1640.238" y1="2006.892" x2="1668.3269" y2="2012.6215" gradientTransform="matrix(1 0 0 1 120.2779 0)">
				<stop  offset="0" style="stop-color:#FEBBBA"/>
				<stop  offset="1" style="stop-color:#FF928E"/>
			</linearGradient>
			<path style="fill:url(#SVGID_00000129887913602128916200000015646329572735814327_);" d="M1778.178,2037.264
				c0,0,14.517-20.01,9.417-34.92s-16.087-20.795-20.795-20.795c-4.708,0-3.139,49.829-3.139,49.829L1778.178,2037.264z"/>
			<g>
				
					<linearGradient id="SVGID_00000152236484431870822980000007738482697630962848_" gradientUnits="userSpaceOnUse" x1="3566.9822" y1="2359.2026" x2="3702.5249" y2="2359.2026" gradientTransform="matrix(0.9994 0.0349 -0.0349 0.9994 -1249.7111 734.0373)">
					<stop  offset="0" style="stop-color:#09005D"/>
					<stop  offset="1" style="stop-color:#1A0F91"/>
				</linearGradient>
				<path style="fill:url(#SVGID_00000152236484431870822980000007738482697630962848_);" d="M2248.001,3183.839
					c0,0-15.139,21.821-15.9,52.473c-0.18,7.219,5.662,13.179,12.879,13.43l116.532,4.064c5.455,0.19,7.916-6.745,3.559-10.035
					c-21.511-16.254-63.843-46.692-94.794-59.154L2248.001,3183.839z"/>
				
					<linearGradient id="SVGID_00000020381489176895417220000003636553839362323382_" gradientUnits="userSpaceOnUse" x1="3541.7981" y1="1598.1263" x2="3576.6416" y2="1598.1263" gradientTransform="matrix(0.9907 0.1362 -0.1362 0.9907 -1048.4272 1097.9357)">
					<stop  offset="0" style="stop-color:#FEBBBA"/>
					<stop  offset="1" style="stop-color:#FF928E"/>
				</linearGradient>
				<path style="fill:url(#SVGID_00000020381489176895417220000003636553839362323382_);" d="M2245.099,3146.635l2.985,44.797
					c0.334,5.011,4.65,8.943,9.655,8.526c3.042-0.253,6.698-1.037,10.739-2.852c3.841-1.725,6.211-5.685,6.053-9.892l-2.028-54.053
					L2245.099,3146.635z"/>
			</g>
			<g>
				
					<linearGradient id="SVGID_00000142170915826559821950000013178526046542206911_" gradientUnits="userSpaceOnUse" x1="-343.9455" y1="-3602.8132" x2="-208.4047" y2="-3602.8132" gradientTransform="matrix(0.1553 0.9879 -0.9879 0.1553 -1941.7795 3878.9236)">
					<stop  offset="0" style="stop-color:#09005D"/>
					<stop  offset="1" style="stop-color:#1A0F91"/>
				</linearGradient>
				<path style="fill:url(#SVGID_00000142170915826559821950000013178526046542206911_);" d="M1598.792,2988.392
					c0,0-24.298-10.724-54.536-5.656c-7.122,1.194-11.865,8.06-10.744,15.195l18.12,115.186c0.849,5.393,8.124,6.493,10.528,1.592
					c11.877-24.204,33.732-71.542,40.095-104.295L1598.792,2988.392z"/>
				
					<linearGradient id="SVGID_00000180362570047722247480000012488109307211611278_" gradientUnits="userSpaceOnUse" x1="-953.8799" y1="-3935.6021" x2="-919.0341" y2="-3935.6021" gradientTransform="matrix(0.0542 0.9985 -0.9985 0.0542 -2260.3196 4145.1694)">
					<stop  offset="0" style="stop-color:#FEBBBA"/>
					<stop  offset="1" style="stop-color:#FF928E"/>
				</linearGradient>
				<path style="fill:url(#SVGID_00000180362570047722247480000012488109307211611278_);" d="M1634.77,2978.483l-43.417,11.43
					c-4.856,1.278-7.898,6.262-6.539,11.097c0.825,2.939,2.289,6.379,4.837,10.003c2.423,3.443,6.76,5.019,10.861,4.065
					l52.687-12.246L1634.77,2978.483z"/>
			</g>
			
				<linearGradient id="SVGID_00000152242822925160144690000013178389582393167261_" gradientUnits="userSpaceOnUse" x1="872.1906" y1="2732.7075" x2="929.5057" y2="2744.3984" gradientTransform="matrix(-0.9932 0.1165 0.1165 0.9932 2856.5576 -741.6713)">
				<stop  offset="0" style="stop-color:#FEBBBA"/>
				<stop  offset="1" style="stop-color:#FF928E"/>
			</linearGradient>
			<path style="fill:url(#SVGID_00000152242822925160144690000013178389582393167261_);" d="M2256.206,2101.804
				c0,0,3.901-9.026,3.275-14.364c-0.626-5.338-0.778-22.004,9.219-29.04c0,0,5.418,0.266,5.524,6.341
				c6.369-6.835,6.691-12.735,13.271-8.547c6.579,4.188,31.34,19.209,18.974,29.115c-12.365,9.906-31.799,28.759-31.799,28.759
				L2256.206,2101.804z"/>
			
				<linearGradient id="SVGID_00000011000001280694860970000000123566435733408905_" gradientUnits="userSpaceOnUse" x1="8734.3545" y1="731.8883" x2="9056.6094" y2="639.8154" gradientTransform="matrix(-1 0 0 1 3100.4382 0)">
				<stop  offset="0" style="stop-color:#09005D"/>
				<stop  offset="1" style="stop-color:#1A0F91"/>
			</linearGradient>
			<path style="fill:url(#SVGID_00000011000001280694860970000000123566435733408905_);" d="M2014.808,2792.85
				c0,0-22.054,176.017-85.204,182.735c-63.151,6.718-305.004,41.653-305.004,41.653l-6.719-36.278
				c0,0,139.738-84.648,223.043-83.305c41.653-61.808,31.492-232.585,31.492-232.585L2014.808,2792.85z"/>
			
				<linearGradient id="SVGID_00000065056773071989827980000005995805564518717330_" gradientUnits="userSpaceOnUse" x1="796.864" y1="2247.7915" x2="1302.0557" y2="2350.8394" gradientTransform="matrix(-1 0 0 1 3100.4382 0)">
				<stop  offset="0" style="stop-color:#4F52FF"/>
				<stop  offset="1" style="stop-color:#4042E2"/>
			</linearGradient>
			<path style="fill:url(#SVGID_00000065056773071989827980000005995805564518717330_);" d="M1742.839,2027.259
				c2.688,200.886,121.383,394.748,121.383,394.748v220.466h146.323c0,0,70.379-171.179,68.552-228.473
				c109.585-11.823,186.362-266.389,197.432-298.797c-5.159-3.924-12.576-14.014-23.11-22.506
				c-161.236,217.668-201.545,229.614-201.545,229.614h-80.618c-102.116-12.555-188.109-295.052-188.109-295.052H1742.839z"/>
			
				<linearGradient id="SVGID_00000106845534267273944730000007543256268201952684_" gradientUnits="userSpaceOnUse" x1="3218.1995" y1="3328.8979" x2="2813.552" y2="3173.783">
				<stop  offset="0" style="stop-color:#09005D"/>
				<stop  offset="1" style="stop-color:#1A0F91"/>
			</linearGradient>
			<path style="fill:url(#SVGID_00000106845534267273944730000007543256268201952684_);" d="M1869.928,2642.363
				c0,0-11.537,122.64,230.711,218.486c59.12,110.177,136.657,315.228,136.657,315.228h51.058c0,0-34.934-309.853-96.742-371.66
				c-61.806-61.807-129.233-131.189-181.064-161.645C1890.639,2630.232,1869.928,2642.363,1869.928,2642.363z"/>
			<g>
				
					<linearGradient id="SVGID_00000106119051839356062890000011084201635133061507_" gradientUnits="userSpaceOnUse" x1="3407.946" y1="2468.1687" x2="3155.1167" y2="2932.7178" gradientTransform="matrix(0.9937 -0.112 0.112 0.9937 -1580.7095 24.4975)">
					<stop  offset="0" style="stop-color:#FEBBBA"/>
					<stop  offset="1" style="stop-color:#FF928E"/>
				</linearGradient>
				<path style="fill:url(#SVGID_00000106119051839356062890000011084201635133061507_);" d="M1973.211,2242.677l-26.717,94.099
					c0,0,45.656,24.54,79.414,17.908l9.276-82.95L1973.211,2242.677z"/>
				<g>
					
						<linearGradient id="SVGID_00000089534794236037520790000011560692700803782328_" gradientUnits="userSpaceOnUse" x1="1823.7876" y1="6317.2397" x2="1702.2235" y2="6478.0591" gradientTransform="matrix(0.8631 -0.7677 0.783 0.8803 -4520.3965 -1965.2087)">
						<stop  offset="0" style="stop-color:#FEBBBA"/>
						<stop  offset="1" style="stop-color:#FF928E"/>
					</linearGradient>
					<path style="fill:url(#SVGID_00000089534794236037520790000011560692700803782328_);" d="M2025.88,2176.719
						c0.866,0.975,22.586,53.638,37.365,89.604c3.417,8.315,2.773,18.202-1.755,27.139c-4.527,8.937-12.507,16.09-21.905,19.568
						l-1.299,0.481c-17.999,6.661-36.604,1.062-45.28-13.625l-49.125-83.159C1943.88,2216.727,2003.816,2151.911,2025.88,2176.719z"
						/>
					
						<linearGradient id="SVGID_00000061465139416459499180000010408728475189270156_" gradientUnits="userSpaceOnUse" x1="1799.9155" y1="2203.4575" x2="1924.4938" y2="2203.4575" gradientTransform="matrix(1 0 0 1 120.2779 0)">
						<stop  offset="0" style="stop-color:#09005D"/>
						<stop  offset="1" style="stop-color:#1A0F91"/>
					</linearGradient>
					<path style="fill:url(#SVGID_00000061465139416459499180000010408728475189270156_);" d="M2002.097,2192.669
						c-13.269,0.501-21.59,14.706-24.817,21.448c-1.076,2.15-1.004,4.661,0,6.742l21.372,44.139
						c1.574,3.252,0.353,7.167-2.792,8.948l-7.867,4.453c-3.113,1.762-7.045,0.833-9.047-2.133
						c-2.984-4.421-5.558-8.007-7.334-10.146c-7.316-8.679-22.593-6.672-28.906-5.379c-2.08,0.431-4.232-0.074-6.025-1.292
						c-6.168-4.231-18.219-15.638-4.877-32.347c2.726-3.516,2.08-8.539-1.507-11.263c-7.101-5.306-15.206-15.277-5.953-29.84
						c9.396-14.773,24.028-14.272,33.21-12.048c3.729,0.932,7.46-1.005,9.037-4.518c0.861-2.01,2.654-3.587,6.025-3.73
						c4.59-0.073,7.962-4.304,7.316-8.822c-1.076-8.608,0.789-19.942,15.278-26.323c25.821-11.333,45.403,12.552,49.205,31.702
						C2048.29,2181.336,2019.599,2192.025,2002.097,2192.669z"/>
					
						<linearGradient id="SVGID_00000093138890945715628910000015462068705045681838_" gradientUnits="userSpaceOnUse" x1="1881.3832" y1="6469.9922" x2="1983.7872" y2="6364.9287" gradientTransform="matrix(0.7472 -0.6646 0.6646 0.7472 -3751.478 -1168.7673)">
						<stop  offset="0" style="stop-color:#FEBBBA"/>
						<stop  offset="1" style="stop-color:#FF928E"/>
					</linearGradient>
					<path style="fill:url(#SVGID_00000093138890945715628910000015462068705045681838_);" d="M1980.715,2284.477
						c0,0-8.093-32.979-22.198-33.048c-14.107-0.07-26.367,12.899-10.408,30.122
						C1967.959,2302.975,1980.715,2284.477,1980.715,2284.477z"/>
				</g>
			</g>
			<g>
				<path style="fill:#91B3FA;" d="M2284.828,1748.882c0,0-39.49,20.403-103.837,0c-64.346-20.402-128.82,41.029-128.82,41.029
					s153.994,6.054,183.813,53.137c29.819,47.083,48.844,34.527,48.844,34.527V1748.882z"/>
				
					<linearGradient id="SVGID_00000049203358734581445060000003738545032900384648_" gradientUnits="userSpaceOnUse" x1="-6895.6958" y1="6731.6875" x2="-6421.5786" y2="6359.5952" gradientTransform="matrix(-1 0 0 1 1503.4655 0)">
					<stop  offset="0" style="stop-color:#4F52FF"/>
					<stop  offset="1" style="stop-color:#4042E2"/>
				</linearGradient>
				<path style="fill:url(#SVGID_00000049203358734581445060000003738545032900384648_);" d="M2297.383,1755.749
					c0-6.067-4.918-10.986-10.986-10.986h-3.139c-6.067,0-10.986,4.919-10.986,10.986v354.69c0,6.067,4.919,10.986,10.986,10.986
					h3.139c6.067,0,10.986-4.918,10.986-10.986V1755.749z"/>
			</g>
			<g>
				<path style="fill:#91B3FA;" d="M1763.779,1692.383c0,0-39.49,20.402-103.837,0s-128.82,41.029-128.82,41.029
					s153.994,6.054,183.813,53.137c29.819,47.083,48.844,34.527,48.844,34.527V1692.383z"/>
				
					<linearGradient id="SVGID_00000148636392799863817100000014779820624078768000_" gradientUnits="userSpaceOnUse" x1="-6374.646" y1="6675.1875" x2="-5900.5288" y2="6303.0952" gradientTransform="matrix(-1 0 0 1 1503.4655 0)">
					<stop  offset="0" style="stop-color:#4F52FF"/>
					<stop  offset="1" style="stop-color:#4042E2"/>
				</linearGradient>
				<path style="fill:url(#SVGID_00000148636392799863817100000014779820624078768000_);" d="M1776.334,1699.249
					c0-6.067-4.919-10.986-10.986-10.986h-3.139c-6.067,0-10.986,4.919-10.986,10.986v354.69c0,6.067,4.919,10.986,10.986,10.986
					h3.139c6.067,0,10.986-4.918,10.986-10.986V1699.249z"/>
			</g>
			
				<linearGradient id="SVGID_00000119824849413986209530000007234629602063262603_" gradientUnits="userSpaceOnUse" x1="1334.6737" y1="2018.1758" x2="1368.7933" y2="2025.1354" gradientTransform="matrix(-1 0 0 1 3100.4382 0)">
				<stop  offset="0" style="stop-color:#FEBBBA"/>
				<stop  offset="1" style="stop-color:#FF928E"/>
			</linearGradient>
			<path style="fill:url(#SVGID_00000119824849413986209530000007234629602063262603_);" d="M1734.777,1997.867
				c0,0,31.351-13.884,27.321,9.406c-4.031,23.29,4.388,40.309-13.482,42.101
				C1730.746,2051.165,1728.711,2013.963,1734.777,1997.867z"/>
			
				<linearGradient id="SVGID_00000039099957927059588690000001442354486264218269_" gradientUnits="userSpaceOnUse" x1="782.2365" y1="2074.675" x2="816.3561" y2="2081.6345" gradientTransform="matrix(-1 0 0 1 3100.4382 0)">
				<stop  offset="0" style="stop-color:#FEBBBA"/>
				<stop  offset="1" style="stop-color:#FF928E"/>
			</linearGradient>
			<path style="fill:url(#SVGID_00000039099957927059588690000001442354486264218269_);" d="M2287.214,2054.367
				c0,0,31.352-13.884,27.321,9.406c-4.031,23.29,4.388,40.309-13.482,42.101
				C2283.184,2107.664,2281.148,2070.462,2287.214,2054.367z"/>
		</g>
	</g>
</g>
</svg>
